<?xml version="1.0" standalone="no"?>
<!DOCTYPE svg PUBLIC "-//W3C//DTD SVG 20010904//EN"
 "http://www.w3.org/TR/2001/REC-SVG-20010904/DTD/svg10.dtd">
<svg version="1.0" xmlns="http://www.w3.org/2000/svg"
 width="700.000000pt" height="700.000000pt" viewBox="0 0 700.000000 700.000000"
 preserveAspectRatio="xMidYMid meet">
<metadata>
Created by potrace 1.11, written by Peter Selinger 2001-2013
</metadata>
<g transform="translate(0.000000,700.000000) scale(0.100000,-0.100000)"
fill="#000000" stroke="none">
<path d="M1100 6630 c-145 -30 -290 -98 -395 -184 -59 -48 -133 -122 -158
-156 -88 -124 -134 -217 -168 -340 l-24 -85 -2 -2305 c-2 -2227 -1 -2308 17
-2395 79 -375 379 -662 765 -733 22 -4 1086 -7 2365 -7 2139 0 2331 1 2396 17
176 41 331 126 460 252 154 151 250 345 271 549 4 34 7 1084 6 2332 l0 2270
-26 98 c-69 262 -231 467 -472 597 -62 34 -135 62 -200 79 -22 5 -53 14 -70
18 -16 4 -1076 8 -2355 9 -2198 2 -2330 1 -2410 -16z m1391 -442 c1 -7 1 -16
1 -19 -1 -3 -3 -37 -6 -75 -3 -38 -10 -96 -16 -129 -6 -33 -13 -69 -14 -80
-23 -136 -116 -367 -214 -530 -117 -196 -371 -456 -532 -546 -14 -8 -27 -16
-30 -19 -11 -11 -90 -54 -175 -95 -180 -86 -415 -149 -613 -162 l-88 -5 1 633
c1 695 -1 669 62 791 54 104 205 214 323 237 25 5 327 9 673 10 499 1 627 -1
628 -11z m3349 -10 c120 -42 234 -138 285 -238 58 -114 55 -34 55 -1652 l0
-1488 -102 75 c-57 41 -229 167 -383 280 -474 348 -493 360 -629 395 -178 45
-428 -9 -556 -120 -14 -12 -30 -25 -36 -28 -26 -17 -135 -160 -334 -439 -189
-265 -217 -301 -232 -290 -231 167 -758 534 -792 552 -171 91 -419 95 -588 9
-114 -58 -155 -94 -352 -314 -77 -85 -146 -162 -155 -171 -9 -9 -43 -47 -76
-84 -33 -38 -65 -73 -70 -79 -11 -11 -172 -188 -319 -350 -45 -49 -104 -115
-132 -145 -94 -103 -169 -186 -244 -270 -41 -47 -80 -89 -85 -95 -6 -6 -73
-80 -149 -163 -76 -84 -138 -153 -139 -153 -5 0 -1 2659 3 2663 3 3 56 8 119
11 63 4 117 8 120 10 3 2 29 7 56 10 28 4 57 9 65 11 8 2 31 7 50 10 69 11
253 66 345 103 265 105 531 280 730 478 156 155 228 244 330 409 142 229 256
524 289 750 4 23 8 51 11 64 5 28 17 150 20 206 2 22 3 46 4 53 1 10 276 12
1424 9 1274 -2 1427 -4 1467 -19z m-848 -3077 c15 -5 146 -97 290 -202 145
-106 291 -213 326 -238 35 -25 128 -93 206 -151 79 -58 193 -141 254 -185
l111 -80 0 -485 c0 -479 0 -486 -23 -553 -12 -37 -28 -73 -33 -78 -8 -8 -58
22 -172 102 -274 194 -365 258 -386 273 -11 8 -65 46 -120 85 -55 39 -107 75
-115 81 -43 31 -434 307 -555 392 -77 55 -215 152 -307 216 -100 70 -166 122
-163 130 8 22 428 606 465 645 55 59 145 79 222 48z m-2094 -270 c17 -9 539
-375 837 -587 11 -7 56 -39 99 -70 98 -69 1563 -1103 1593 -1124 12 -8 72 -51
134 -95 l112 -80 -449 -3 c-897 -5 -4020 4 -4049 11 -37 10 -113 43 -143 63
l-22 15 42 46 c24 25 48 51 53 57 130 144 294 324 305 336 8 9 46 51 85 94 38
43 83 92 100 110 40 43 66 73 290 321 104 116 194 215 200 221 5 6 48 53 95
105 47 51 108 118 135 149 28 30 55 59 60 66 295 329 306 340 359 365 45 20
127 20 164 0z"/>
</g>
</svg>
