<svg xmlns="http://www.w3.org/2000/svg" xmlns:xlink="http://www.w3.org/1999/xlink" xmlns:sketch="http://www.bohemiancoding.com/sketch/ns" viewBox="0 0 100 100" version="1.1" x="0px" y="0px"><g stroke="none" stroke-width="1" fill="none" fill-rule="evenodd" sketch:type="MSPage"><path d="M81.3848649,5 L18.4059459,5 C11.0137838,5 5,10.9600893 5,18.28625 L5,80.7028571 C5,88.0290179 11.0137838,93.9891071 18.4059459,93.9891071 L81.3848649,93.9891071 C88.777027,93.9891071 94.7908108,88.0290179 94.7908108,80.7028571 L94.7908108,18.28625 C94.7908108,10.9600893 88.777027,5 81.3848649,5 L81.3848649,5 Z M11.4864865,18.28625 C11.4864865,14.5054464 14.5910811,11.4285714 18.4059459,11.4285714 L35.6251351,11.4285714 C35.3,24.4745536 24.6524324,35.0190179 11.4864865,35.3291964 L11.4864865,18.28625 L11.4864865,18.28625 Z M18.4059459,87.5605357 C16.9237838,87.5605357 15.5527027,87.0920536 14.4256757,86.3029464 L38.0178378,60.2551786 C39.0078378,59.1599107 40.6667568,58.9791071 41.8748649,59.8325 L81.1302703,87.5605357 L18.4059459,87.5605357 L18.4059459,87.5605357 Z M88.3043243,80.7028571 C88.3043243,81.9347321 87.9694595,83.0894643 87.392973,84.0899107 L61.3659459,65.7058036 L67.8232432,56.6720536 C68.2789189,56.0340179 68.9591892,55.6145536 69.7383784,55.49 C70.5159459,55.3678571 71.2959459,55.5534821 71.93,56.01875 L88.3043243,67.9775 L88.3043243,80.7028571 L88.3043243,80.7028571 Z M88.3043243,60.0149107 L75.7845946,50.8477679 C73.7372973,49.3491071 71.227027,48.7432143 68.7110811,49.1425893 C66.1975676,49.5419643 64.0018919,50.8967857 62.5302703,52.9555357 L56.0843243,61.9740179 L45.6402703,54.5972321 C41.7418919,51.8433929 36.3897297,52.4283929 33.1910811,55.9600893 L11.4864865,79.9241964 L11.4864865,41.7577679 C28.2289189,41.4451786 41.7840541,28.0191071 42.1116216,11.4285714 L81.3848649,11.4285714 C85.1997297,11.4285714 88.3043243,14.5054464 88.3043243,18.28625 L88.3043243,60.0149107 L88.3043243,60.0149107 Z" fill="#FFFFFF" sketch:type="MSShapeGroup"/></g></svg>
